# AST/ASF file generated using VICON BodyLanguage
# -----------------------------------------------
:version 1.10
:name VICON
:units
  mass 1.0
  length 0.45
  angle deg
:documentation
   .ast/.asf automatically generated from VICON data using
   VICON BodyBuilder and BodyLanguage model FoxedUp or BRILLIANT.MOD
:root
   order TX TY TZ RX RY RZ
   axis XYZ
   position 0 0 0  
   orientation 0 -0 0 
:bonedata
  begin
     id 1 
     name lhipjoint
     direction 0.515797 -0.759363 0.396637 
     length 2.47888 
     axis 0 -0 0  XYZ
  end
  begin
     id 2 
     name lfemur
     direction 0.34202 -0.939693 0  
     length 6.81885  
     axis 0 -0 20  XYZ
    dof rx ry rz
    limits (-160.0 20.0)
           (-70.0 70.0)
           (-60.0 70.0)
  end
  begin
     id 3 
     name ltibia
     direction 0.342037 -0.939687 0   
     length 7.89258   
     axis 0 -0 20   XYZ
    dof rx
    limits (-10.0 170.0)
  end
  begin
     id 4 
     name lfoot
     direction 0.173497 -0.476678 0.861787   
     length 2.51543   
     axis -90 -1.13533e-015 20   XYZ
    dof rx rz
    limits (-45.0 90.0)
           (-70.0 20.0)
  end
  begin
     id 5 
     name ltoes
     direction 1.53564e-011 -4.21897e-011 1   
     length 1.21388   
     axis -90 -1.13533e-015 20   XYZ
    dof rx
    limits (-90.0 20.0)
  end
  begin
     id 6 
     name rhipjoint
     direction -0.489454 -0.772941 0.403729   
     length 2.43534  
     axis 0 -0 0  XYZ 
  end
  begin
     id 7 
     name rfemur
     direction -0.34202 -0.939693 0   
     length 7.10357   
     axis 0 -0 -20   XYZ
    dof rx ry rz
    limits (-160.0 20.0)
           (-70.0 70.0)
           (-70.0 60.0)
  end
  begin
     id 8 
     name rtibia
     direction -0.34202 -0.939693 0   
     length 9.16127   
     axis 0 -0 -20   XYZ
    dof rx
    limits (-10.0 170.0)
 end
 begin
     id 9 
     name rfoot
     direction -0.270974 -0.748671 0.605033   
     length 1.74894  
     axis -90 1.13533e-015 -20   XYZ
    dof rx rz
    limits (-45.0 90.0)
           (-20.0 70.0)
  end
  begin
     id 10 
     name rtoes
     direction -1.53557e-011 -4.21759e-011 1   
     length 0.787585   
     axis -90 1.13533e-015 -20   XYZ
    dof rx
    limits (-90.0 20.0)
  end
  begin
     id 11 
     name lowerback
     direction -0.0140249 0.999561 0.0260968   
     length 2.16963   
     axis 0 -0 0   XYZ
    dof rx ry rz
    limits (-20.0 45.0)
           (-30.0 30.0)
           (-30.0 30.0)
  end
  begin
     id 12 
     name upperback
     direction 0.00860018 0.999959 -0.002711   
     length 2.1726   
     axis 0 -0 0   XYZ
    dof rx ry rz
    limits (-20.0 45.0)
           (-30.0 30.0)
           (-30.0 30.0)
  end
  begin
     id 13 
     name thorax
     direction 0.015211 0.999782 -0.0143191   
     length 2.17061   
     axis 0 -0 0   XYZ
    dof rx ry rz
    limits (-20.0 45.0)
           (-30.0 30.0)
           (-30.0 30.0)
  end
  begin
     id 14 
     name lowerneck
     direction -0.0140143 0.999447 0.030145   
     length 2.26749   
     axis 0 -0 0   XYZ
    dof rx ry rz
    limits (-20.0 45.0)
           (-30.0 30.0)
           (-30.0 30.0)
  end
  begin
     id 15 
     name upperneck
     direction 0.118062 0.961438 -0.248392   
     length 2.22728   
     axis 0 -0 0   XYZ
    dof rx ry rz
    limits (-20.0 45.0)
           (-30.0 30.0)
           (-30.0 30.0)
  end
  begin
     id 16
     name head
     direction 0.0431885 0.9954 -0.085514  
     length 2.28786  
     axis 0 -0 0   XYZ
    dof rx ry rz
    limits (-20.0 45.0)
           (-30.0 30.0)
           (-30.0 30.0)
  end
  begin
     id 17 
     name lclavicle
     direction 0.912126 0.409548 0.0172323  
     length 4.31571  
     axis 0 -0 0   XYZ
    dof ry rz
    limits (-20.0 10.0)
           (0.0 20.0)
  end
  begin
     id 18 
     name lhumerus
     direction 1 -4.48977e-011 1.93091e-027   
     length 5.13658   
     axis 180 -30 -90   XYZ
    dof rx ry rz
    limits (-60.0 90.0)
           (-90.0 90.0)
           (-90.0 90.0)
  end
  begin
     id 19
     name lradius
     direction 1 -4.48916e-011 6.84018e-027   
     length 3.22473   
     axis 180 -30 -90   XYZ
    dof rx
    limits (-10.0 170.0)
  end
  begin
     id 20
     name lwrist
     direction 1 -4.48987e-011 7.01981e-027   
     length 1.61236   
     axis -4.37994e-015 90 90   XYZ
    dof ry
    limits (-180.0 0.0)
 end
  begin
     id 21 
     name lhand
     direction 1 -4.49037e-011 1.40335e-026   
     length 0.936406   
     axis -8.96029e-015 90 90   XYZ
    dof rx rz
    limits (-90.0 90.0)
           (-45.0 45.0)
  end
  begin
     id 22 
     name lfingers
     direction 1 -4.48886e-011 2.8104e-026   
     length 0.754955   
     axis -1.79203e-014 90 90   XYZ
    dof rx
    limits (0.0 90.0)
  end
  begin
     id 23
     name lthumb
     direction 0.707107 -6.34937e-011 0.707107   
     length 1.08397   
     axis -90 45 -4.48555e-014   XYZ
    dof rx rz
    limits (-45.0 45.0)
           (-45.0 45.0)
  end
  begin
     id 24 
     name rclavicle
     direction -0.947962 0.317997 0.0156638   
     length 4.86918  
     axis 0 -0 0   XYZ 
    dof ry rz
    limits (-10.0 20.0)
           (-20.0 0.0)
  end
  begin
     id 25 
     name rhumerus
     direction -1 -4.48951e-011 2.80534e-018  
     length 5.60911   
     axis 180 30 90   XYZ
    dof rx ry rz
    limits (-90.0 60.0)
           (-90.0 90.0)
           (-90.0 90.0)
  end
  begin
     id 26 
     name rradius
     direction -1 -4.4898e-011 2.11315e-027   
     length 3.38704   
     axis 180 30 90   XYZ
    dof rx
    limits (-10.0 170.0)
  end
  begin
     id 27 
     name rwrist
     direction -1 -4.48933e-011 7.02314e-027   
     length 1.69352   
     axis -4.37994e-015 -90 -90   XYZ
    dof ry
    limits (-180.0 0.0)
  end
  begin
     id 28
     name rhand
     direction -1 -4.48937e-011 1.40458e-026   
     length 0.755878   
     axis -8.96029e-015 -90 -90   XYZ
    dof rx rz
    limits (-90.0 90.0)
           (-45.0 45.0)
  end
  begin
     id 29
     name rfingers
     direction -1 -4.4901e-011 2.80737e-026   
     length 0.609409   
     axis -1.79203e-014 -90 -90   XYZ
    dof rx
    limits (0.0 90.0)
  end
  begin
     id 30
     name rthumb
     direction -0.707107 -6.34968e-011 0.707107   
     length 0.874992   
     axis -90 -45 4.48555e-014   XYZ
    dof rx rz
    limits (-45.0 45.0)
           (-45.0 45.0)
  end
:hierarchy
  begin
    root lhipjoint rhipjoint lowerback
    lhipjoint lfemur
    lfemur ltibia
    ltibia lfoot
    lfoot ltoes
    rhipjoint rfemur
    rfemur rtibia
    rtibia rfoot
    rfoot rtoes
    lowerback upperback
    upperback thorax
    thorax lowerneck lclavicle rclavicle
    lowerneck upperneck
    upperneck head
    lclavicle lhumerus
    lhumerus lradius
    lradius lwrist
    lwrist lhand lthumb
    lhand lfingers
    rclavicle rhumerus
    rhumerus rradius
    rradius rwrist
    rwrist rhand rthumb
    rhand rfingers
  end

#!OML:ASF C:\ViconDB\ViconDB\414\Spring2016\041811\Spring2016.ASF
:FULLY-SPECIFIED
:DEGREES
70
root 8.98579 18.6701 -9.55883 -172.341 72.2256 187.588
lowerback 2.7534 -1.22254 -7.37316
upperback -0.0287884 -1.85295 0.0132303
thorax -1.34176 -0.870258 4.21659
lowerneck -18.605 -4.5845 -13.6195
upperneck 30.8836 -6.35702 15.2033
head 14.8133 -2.02071 7.74239
rclavicle 3.49116e-014 3.26007e-014
rhumerus -28.246 -13.9737 -14.8588
rradius 37.3172
rwrist 33.2266
rhand -32.3965 -11.8867
rfingers 7.12502
rthumb -5.63155 -41.7919
lclavicle 3.49116e-014 3.26007e-014
lhumerus -23.8751 -7.37203 10.857
lradius 33.4245
lwrist -18.9393
lhand -30.6202 18.2576
lfingers 7.12502
lthumb -3.91635 48.2014
rfemur 145.384 24.9513 184.754
rtibia 43.0265
rfoot 3.7682 -68.3186
rtoes -6.92734
lfemur -14.0575 11.9262 -10.3669
ltibia 40.4663
lfoot -19.8714 21.8913
ltoes -20.3254
71
root 9.00321 18.68 -9.50836 -172.08 74.7002 188.229
lowerback 3.02249 -1.33106 -7.38061
upperback 0.0743787 -2.01597 -0.100905
thorax -1.36901 -0.952682 4.11336
lowerneck -18.6342 -4.58205 -13.8334
upperneck 30.7725 -6.39398 15.4797
head 14.7992 -2.03928 7.89029
rclavicle -4.09745e-014 5.56597e-015
rhumerus -29.1365 -14.5152 -14.1414
rradius 37.0128
rwrist 33.5856
rhand -32.397 -12.3044
rfingers 7.12502
rthumb -5.632 -42.2095
lclavicle -4.09745e-014 5.56597e-015
lhumerus -23.69 -7.95384 10.778
lradius 33.759
lwrist -18.4074
lhand -31.0234 18.3748
lfingers 7.12502
lthumb -4.30573 48.3111
rfemur 145.669 22.9736 185.044
rtibia 43.115
rfoot 3.00061 -67.4965
rtoes -6.55727
lfemur -14.0615 12.8965 -9.77184
ltibia 42.0283
lfoot -18.0355 21.7357
ltoes -21.2616
72
root 9.01992 18.6813 -9.46154 -172.029 77.1206 188.626
lowerback 3.33543 -1.47944 -7.42228
upperback 0.0877586 -2.24163 -0.233218
thorax -1.50631 -1.05955 4.01679
lowerneck -18.529 -4.46516 -13.8044
upperneck 30.7158 -6.24739 15.4183
head 14.7114 -1.99427 7.87111
rclavicle 4.59565e-014 -1.11319e-014
rhumerus -29.9161 -14.839 -13.4083
rradius 36.5572
rwrist 33.5861
rhand -32.5026 -12.6059
rfingers 7.12502
rthumb -5.73404 -42.5083
lclavicle 4.59565e-014 -1.11319e-014
lhumerus -23.6709 -8.17124 10.6812
lradius 34.1253
lwrist -18.1798
lhand -31.2792 18.1951
lfingers 7.12502
lthumb -4.55275 48.1262
rfemur 145.923 21.2797 185.127
rtibia 43.1889
rfoot 1.8489 -67.0178
rtoes -4.56639
lfemur -14.2269 13.8774 -9.27302
ltibia 43.8014
lfoot -16.0063 21.2345
ltoes -21.7262
73
root 9.03338 18.6728 -9.41969 -170.473 79.3893 190.603
lowerback 3.72441 -1.65101 -7.08754
upperback 0.0826145 -2.49162 -0.313513
thorax -1.71667 -1.17913 3.76983
lowerneck -18.2818 -4.44127 -13.9559
upperneck 30.5423 -6.24008 15.5168
head 14.5836 -2.01497 7.92129
rclavicle 5.11808e-014 1.90833e-014
rhumerus -30.7902 -15.534 -12.4251
rradius 35.992
rwrist 34.1776
rhand -32.4662 -12.734
rfingers 7.12502
rthumb -5.69883 -42.6374
lclavicle 5.11808e-014 1.90833e-014
lhumerus -23.5911 -8.26831 10.5446
lradius 34.4882
lwrist -18.0853
lhand -31.2677 18.5669
lfingers 7.12502
lthumb -4.54162 48.4982
rfemur 146.153 20.0005 185.39
rtibia 43.0666
rfoot -0.509027 -66.6064
rtoes -3.44118
lfemur -14.4413 14.9505 -8.34223
ltibia 45.7201
lfoot -13.7354 20.118
ltoes -21.6696
74
root 9.04692 18.6634 -9.3884 -169.86 81.8229 191.391
lowerback 3.95306 -1.78194 -6.96009
upperback 0.0775841 -2.68161 -0.572619
thorax -1.84614 -1.26948 3.44734
lowerneck -18.3817 -4.45949 -13.8592
upperneck 30.4311 -6.32022 15.5246
head 14.5686 -2.04647 7.87972
rclavicle 3.66509e-016 3.49861e-014
rhumerus -31.7366 -16.1419 -11.4445
rradius 35.4607
rwrist 35.193
rhand -32.4587 -12.2158
rfingers 7.12502
rthumb -5.69158 -42.1194
lclavicle 3.66509e-016 3.49861e-014
lhumerus -23.2839 -8.35483 10.2281
lradius 34.7003
lwrist -17.8616
lhand -31.0796 18.1757
lfingers 7.12502
lthumb -4.35998 48.1109
rfemur 146.656 18.905 185.164
rtibia 42.8293
rfoot -2.4116 -66.0955
rtoes -0.259592
lfemur -14.8556 15.8917 -7.8857
ltibia 47.5989
lfoot -11.3964 18.5128
ltoes -21.173
